<svg width="71" height="80" viewBox="0 0 71 80" fill="none" xmlns="http://www.w3.org/2000/svg">
<ellipse cx="35.589" cy="39.9942" rx="35.3339" ry="39.0421" fill="url(#paint0_linear_23_22)"/>
<path d="M47.2152 24.3773H25.7294C23.3036 24.3773 21.4554 26.4196 21.4554 29.0999V52.8405C21.4554 55.5209 23.3036 57.5631 25.7294 57.5631H47.2152C49.641 57.5631 51.4892 55.5209 51.4892 52.8405V29.0999C51.4892 26.4196 49.641 24.3773 47.2152 24.3773ZM36.4723 50.926C41.4394 50.926 45.4824 46.5863 45.4824 41.3531C45.4824 40.4597 45.3669 39.4386 45.1359 38.6728H47.6772V52.2023C47.6772 52.8405 47.2152 53.4787 46.5221 53.4787H26.4225C25.845 53.4787 25.2674 52.9682 25.2674 52.2023V38.5451H27.9242C27.6932 39.4386 27.5777 40.332 27.5777 41.2255C27.4622 46.5863 31.5052 50.926 36.4723 50.926ZM36.4723 47.0968C33.2379 47.0968 30.6966 44.2888 30.6966 40.8426C30.6966 37.3964 33.2379 34.5884 36.4723 34.5884C39.7067 34.5884 42.248 37.3964 42.248 40.8426C42.248 44.4165 39.7067 47.0968 36.4723 47.0968ZM47.5617 33.4396C47.5617 34.2054 46.9841 34.8436 46.291 34.8436H43.0566C42.3635 34.8436 41.786 34.2054 41.786 33.4396V29.9934C41.786 29.2276 42.3635 28.5894 43.0566 28.5894H46.291C46.9841 28.5894 47.5617 29.2276 47.5617 29.9934V33.4396Z" fill="black"/>
<path d="M70.4228 39.9942C70.4228 61.3285 54.7814 78.5363 35.589 78.5363C16.3965 78.5363 0.755096 61.3285 0.755096 39.9942C0.755096 18.6599 16.3965 1.45212 35.589 1.45212C54.7814 1.45212 70.4228 18.6599 70.4228 39.9942Z" stroke="#488AEA"/>
<defs>
<linearGradient id="paint0_linear_23_22" x1="15.272" y1="70.2518" x2="66.9365" y2="21.73" gradientUnits="userSpaceOnUse">
<stop stop-color="#E5E5E5"/>
</linearGradient>
</defs>
</svg>
