<svg width="71" height="80" viewBox="0 0 71 80" fill="none" xmlns="http://www.w3.org/2000/svg">
<ellipse cx="35.4844" cy="39.9942" rx="35.3339" ry="39.0421" fill="#E5E5E5"/>
<path d="M53.7135 42.0794C53.834 41.0146 53.9544 40.083 53.9544 39.0182C53.9544 28.3703 46.1248 19.5859 36.3678 19.5859C35.4041 19.5859 34.5609 19.719 33.5973 19.8521C32.0314 18.9204 30.345 18.5211 28.6586 18.5211C22.6358 18.5211 17.8175 23.845 17.8175 30.4999C17.8175 32.3633 18.1789 34.2267 19.0221 35.9569C18.9016 37.0217 18.7812 37.9534 18.7812 39.0182C18.7812 49.666 26.6108 58.4505 36.3678 58.4505C37.3314 58.4505 38.1746 58.3174 39.1383 58.1843C40.7042 58.9829 42.3906 59.5153 44.077 59.5153C50.0998 59.5153 54.9181 54.1914 54.9181 47.5365C54.9181 45.6731 54.4362 43.8097 53.7135 42.0794ZM43.7156 46.0724C43.3543 46.871 42.8724 47.5365 42.1497 48.0688C41.427 48.6012 40.7042 49.0005 39.7406 49.2667C38.7769 49.5329 37.6928 49.666 36.4882 49.666C33.9587 49.666 31.9109 49.0005 30.4654 47.8026C29.6222 47.0041 28.8995 46.0724 28.5381 44.8745C28.0563 43.8097 28.8995 42.4787 30.1041 42.4787H30.4654C31.1882 42.4787 31.9109 43.0111 32.1518 43.6766C32.3927 44.3421 32.7541 44.8745 33.2359 45.2738C33.9587 45.9393 35.0428 46.2055 36.3678 46.2055C37.5723 46.2055 38.536 45.9393 39.2587 45.54C39.9815 45.1407 40.3428 44.3421 40.3428 43.5435C40.3428 43.1442 40.2224 42.878 40.1019 42.6118C39.9815 42.3456 39.6201 42.0794 39.3792 41.9463C39.0178 41.6801 38.6565 41.547 38.0542 41.4139C37.5723 41.2808 36.9701 41.0146 36.2473 40.8816L35.5246 40.6154C34.6814 40.3492 33.7177 40.083 32.995 39.8168C32.1518 39.5506 31.4291 39.1513 30.8268 38.752C30.2245 38.3527 29.7427 37.8203 29.3813 37.0217C29.0199 36.3562 28.8995 35.4245 28.8995 34.3597C28.8995 33.295 29.1404 32.3633 29.5018 31.5647C29.8631 30.7661 30.4654 30.1006 31.0677 29.7013C31.7904 29.1689 32.5132 28.7696 33.4768 28.6365C34.32 28.3703 35.2837 28.2372 36.3678 28.2372C37.5723 28.2372 38.536 28.3703 39.4997 28.6365C40.4633 28.9027 41.186 29.302 41.9088 29.9675C42.6315 30.4999 43.1133 31.1654 43.4747 32.0971C44.077 33.295 43.2338 34.8921 41.9088 34.8921H41.5474C40.8247 34.8921 40.2224 34.4928 39.861 33.8274C39.6201 33.4281 39.3792 33.0288 39.0178 32.6295C38.4155 32.0971 37.4519 31.8309 36.3678 31.8309C35.2837 31.8309 34.4405 32.0971 33.8382 32.4964C33.2359 32.8957 32.995 33.5612 32.995 34.2267C32.995 34.6259 33.1155 34.8921 33.2359 35.1583C33.3564 35.4245 33.5973 35.6907 33.9587 35.8238C34.32 35.9569 34.6814 36.2231 35.1632 36.3562C35.645 36.4893 36.2473 36.6224 36.9701 36.8886C37.6928 37.0217 38.2951 37.2879 39.0178 37.421C39.6201 37.5541 40.2224 37.8203 40.8247 37.9534C41.427 38.2196 41.9088 38.4858 42.3906 38.752C42.8724 39.0182 43.2338 39.4175 43.5952 39.8168C43.9565 40.2161 44.1974 40.7485 44.3179 41.2808C44.5588 41.8132 44.5588 42.6118 44.5588 43.4104C44.3179 44.3421 44.077 45.2738 43.7156 46.0724Z" fill="black"/>
</svg>
