<svg width="72" height="79" viewBox="0 0 72 79" fill="none" xmlns="http://www.w3.org/2000/svg">
<ellipse cx="35.8875" cy="39.0421" rx="35.3339" ry="39.0421" fill="#E5E5E5"/>
<path d="M17.0734 39.7723L25.1968 43.1193L28.3636 54.3772C28.5013 55.1379 29.3274 55.29 29.8781 54.8336L34.4217 50.726C34.8347 50.2696 35.5232 50.2696 36.0739 50.726L44.1973 57.2678C44.748 57.7242 45.5742 57.4199 45.7118 56.6593L51.77 24.711C51.9077 23.9504 51.2192 23.1897 50.5308 23.494L17.0734 37.7946C16.2473 38.0989 16.2473 39.4681 17.0734 39.7723ZM27.9505 41.4458L43.9219 30.6443C44.1973 30.4921 44.4727 30.9485 44.1973 31.1007L31.1173 44.6406C30.7042 45.097 30.2911 45.7056 30.2911 46.4663L29.8781 50.1175C29.8781 50.5739 29.1897 50.726 29.052 50.1175L27.3998 43.4236C26.9867 42.6629 27.2621 41.7501 27.9505 41.4458Z" fill="black"/>
</svg>
