<svg width="72" height="80" viewBox="0 0 72 80" fill="none" xmlns="http://www.w3.org/2000/svg">
<ellipse cx="36.186" cy="39.9942" rx="35.3339" ry="39.0421" fill="#E5E5E5"/>
<path d="M53.5104 49.9798C53.5104 49.8177 53.3638 49.8177 53.3638 49.6556C52.777 48.3591 51.457 46.7384 49.6969 44.9556C48.8168 44.1453 48.3768 43.497 48.0834 43.1729C47.6434 42.5246 47.6434 42.0384 47.7901 41.3901C47.9368 40.9039 48.5234 40.0935 49.5502 38.6349C50.1369 37.8246 50.4302 37.3384 50.8702 36.8522C53.0704 33.6108 54.0971 31.5039 53.8038 30.5314L53.6571 30.3694C53.5104 30.2073 53.3637 30.0452 53.0704 30.0452C52.777 29.8832 52.337 29.8832 51.897 30.0452H46.3233C46.1766 30.0452 46.1766 30.0452 45.8833 30.0452C45.7366 30.0452 45.5899 30.0452 45.5899 30.0452H45.4433H45.2966L45.1499 30.2073C45.0032 30.3694 45.0032 30.3694 45.0032 30.5314C44.4165 32.3142 43.6831 33.7728 42.9497 35.3935C42.5097 36.2039 42.0697 37.0142 41.6297 37.6625C41.1896 38.3108 40.8963 38.797 40.6029 39.1211C40.3096 39.4453 40.0162 39.6073 39.8695 39.9315C39.7229 40.0935 39.4295 40.2556 39.4295 40.0935C39.2829 40.0935 39.1362 40.0935 39.1362 39.9315C38.9895 39.7694 38.8428 39.6073 38.6961 39.4453C38.5495 39.2832 38.5495 38.959 38.4028 38.6349C38.4028 38.3108 38.4028 37.9866 38.4028 37.8246C38.4028 37.6625 38.4028 37.1763 38.4028 36.8522C38.4028 36.3659 38.4028 36.0418 38.4028 35.8797C38.4028 35.3935 38.4028 34.7453 38.4028 34.097C38.4028 33.4487 38.4028 32.9625 38.4028 32.6383C38.4028 32.3142 38.4028 31.828 38.4028 31.5039C38.4028 31.0177 38.4028 30.6935 38.4028 30.5314C38.4028 30.3694 38.2561 30.0452 38.2561 29.8832C38.1095 29.7211 37.9628 29.559 37.8161 29.397C37.6694 29.2349 37.3761 29.2349 37.2294 29.0728C36.496 28.9108 35.616 28.7487 34.5892 28.7487C32.2424 28.7487 30.629 28.9108 30.0423 29.2349C29.7489 29.397 29.4556 29.559 29.3089 29.8832C29.0155 30.2073 29.0155 30.3694 29.1622 30.3694C29.8956 30.5315 30.4823 30.8556 30.7757 31.3418L30.9223 31.6659C31.069 31.828 31.069 32.1521 31.2157 32.6383C31.3623 33.1246 31.3623 33.6108 31.3623 34.259C31.3623 35.2315 31.3623 36.2039 31.3623 36.8522C31.3623 37.6625 31.2157 38.1487 31.2157 38.6349C31.2157 39.1211 31.069 39.4453 30.9223 39.6073C30.7757 39.9315 30.7756 40.0935 30.629 40.0935C30.629 40.0935 30.629 40.2556 30.4823 40.2556C30.3356 40.2556 30.1889 40.4177 29.8956 40.4177C29.7489 40.4177 29.4556 40.2556 29.3089 40.0935C29.0155 39.9315 28.7222 39.6073 28.5755 39.2832C28.2822 38.9591 27.9888 38.4728 27.6954 37.8246C27.4021 37.1763 26.962 36.528 26.6687 35.5556L26.3754 34.9073C26.2287 34.5832 25.9353 33.9349 25.642 33.1246C25.3486 32.3142 25.0553 31.6659 24.7619 30.8556C24.6152 30.5315 24.4686 30.3694 24.3219 30.2073H24.1752C24.1752 30.2073 24.0285 30.0452 23.8819 30.0452C23.7352 30.0452 23.5885 29.8832 23.4418 29.8832H18.1615C17.5748 29.8832 17.2815 30.0452 17.1348 30.2073L16.9881 30.3694C16.9881 30.3694 16.9881 30.5314 16.9881 30.6935C16.9881 30.8556 16.9881 31.0176 17.1348 31.3418C17.8682 33.2866 18.7482 35.2315 19.6283 37.1763C20.5083 38.9591 21.3884 40.5798 21.9751 41.7142C22.7085 42.8487 23.2952 43.9832 24.0285 44.9556C24.7619 45.928 25.2019 46.5763 25.3486 46.9005C25.642 47.2246 25.7886 47.3867 25.9353 47.5487L26.3754 48.0349C26.6687 48.3591 27.1087 48.8453 27.6954 49.3315C28.2822 49.8177 29.0155 50.3039 29.7489 50.7901C30.4823 51.2763 31.3624 51.6005 32.2424 51.9246C33.2691 52.2488 34.1492 52.4108 35.0292 52.2487H37.2294C37.6694 52.2487 37.9628 52.0867 38.2561 51.7625L38.4028 51.6005C38.4028 51.4384 38.5495 51.4384 38.5495 51.2763C38.5495 51.1143 38.5495 50.9522 38.5495 50.6281C38.5495 49.9798 38.5495 49.4936 38.6961 49.0074C38.8428 48.5212 38.8428 48.197 38.9895 47.8729C39.1362 47.5487 39.2829 47.3867 39.4295 47.2246C39.5762 47.0625 39.7229 46.9005 39.7229 46.9005H39.8695C40.1629 46.7384 40.6029 46.9004 40.8963 47.2246C41.3363 47.5487 41.7763 48.0349 42.0697 48.5211C42.363 49.0074 42.8031 49.4936 43.3898 50.1418C43.9765 50.7901 44.4165 51.2763 44.7099 51.4384L45.1499 51.7625C45.4432 51.9246 45.7366 52.0867 46.1766 52.2487C46.6167 52.4108 46.91 52.4108 47.2033 52.4108L52.1904 52.2487C52.6304 52.2487 53.0704 52.0867 53.3638 51.9246C53.6571 51.7625 53.8038 51.6005 53.8038 51.2763C53.8038 51.1143 53.8038 50.7901 53.8038 50.6281C53.5104 50.3039 53.5104 50.1418 53.5104 49.9798Z" fill="black"/>
<path d="M71.0198 39.9942C71.0198 61.3285 55.3784 78.5363 36.186 78.5363C16.9935 78.5363 1.3521 61.3285 1.3521 39.9942C1.3521 18.6599 16.9935 1.45212 36.186 1.45212C55.3784 1.45212 71.0198 18.6599 71.0198 39.9942Z" stroke="#488AEA"/>
</svg>
